<!DOCTYPE svg PUBLIC "-//W3C//DTD SVG 1.1//EN" "http://www.w3.org/Graphics/SVG/1.1/DTD/svg11.dtd">
<!-- Uploaded to: SVG Repo, www.svgrepo.com, Transformed by: SVG Repo Mixer Tools -->
<svg height="800px" width="800px" version="1.1" id="_x32_" xmlns="http://www.w3.org/2000/svg" xmlns:xlink="http://www.w3.org/1999/xlink" viewBox="0 0 512 512" xml:space="preserve" fill="#000000">
<g id="SVGRepo_bgCarrier" stroke-width="0"/>
<g id="SVGRepo_tracerCarrier" stroke-linecap="round" stroke-linejoin="round"/>
<g id="SVGRepo_iconCarrier"> <style type="text/css"> .st0{fill:#ffffff;} </style> <g> <path class="st0" d="M463.25,130.637c-7.282-9.861-17.685-17.476-30.024-21.268L82.834,1.561h0.014C79.438,0.513,75.942,0,72.474,0 c-7.442,0-14.796,2.363-20.936,6.892c-8.986,6.646-14.289,17.158-14.289,28.34v206.774c0,12.895,4.204,25.075,11.501,34.936 c7.267,9.868,17.67,17.483,29.994,21.276l131.988,40.601v25.913c-0.549,0-1.112-0.014-1.661-0.014 c-12.931,0-25.054,1.076-36.107,3.179c-8.293,1.575-15.98,3.728-22.958,6.494c-10.461,4.154-19.434,9.644-26.167,17.042 c-3.352,3.691-6.126,7.889-8.033,12.512c-1.907,4.624-2.918,9.666-2.918,14.81c0,5.722,1.228,11.328,3.367,16.594 c3.742,9.247,10.113,17.562,18.219,25.212c12.18,11.436,28.479,21.471,47.564,29.736c19.102,8.242,41.006,14.65,64.369,18.356 c14.26,2.262,28.03,3.345,40.976,3.345c12.931,0,25.054-1.077,36.106-3.179c8.294-1.575,15.98-3.728,22.959-6.495 c10.461-4.154,19.434-9.652,26.167-17.042c3.366-3.691,6.126-7.882,8.033-12.512c1.907-4.624,2.918-9.658,2.918-14.803 c0-5.006-0.939-9.926-2.6-14.607c-2.919-8.206-7.962-15.691-14.406-22.619c-9.695-10.381-22.684-19.614-38.057-27.632 c-13.394-6.972-28.608-12.975-45.051-17.671v-14.246l145.699,44.819c3.396,1.048,6.892,1.56,10.36,1.56 c7.442,0,14.796-2.362,20.936-6.892c8.987-6.64,14.304-17.158,14.304-28.341V165.588 C474.751,152.686,470.532,140.505,463.25,130.637z M307.61,408.873c16.876,7.535,30.689,16.58,39.748,25.531 c4.537,4.464,7.86,8.871,9.955,12.881c2.095,4.024,2.948,7.549,2.962,10.684c-0.015,1.922-0.318,3.62-0.925,5.303 c-0.535,1.467-1.315,2.926-2.398,4.422c-1.893,2.615-4.812,5.324-8.842,7.874c-6.04,3.829-14.536,7.21-24.867,9.522 c-10.345,2.326-22.496,3.612-35.861,3.612c-11.646,0-24.216-0.975-37.335-3.055c-16.356-2.594-31.931-6.64-46.019-11.712 c-21.138-7.571-38.896-17.533-50.758-27.784c-5.939-5.115-10.374-10.266-13.149-14.976c-1.401-2.348-2.383-4.58-3.02-6.653 c-0.635-2.066-0.91-3.974-0.91-5.765c0-1.929,0.303-3.627,0.91-5.31c0.535-1.467,1.315-2.926,2.398-4.428 c1.907-2.601,4.812-5.318,8.857-7.868c6.026-3.836,14.521-7.21,24.866-9.522c10.331-2.326,22.496-3.62,35.847-3.62 c0.55,0,1.112,0.015,1.661,0.022v25.206c0,6.906,1.113,13.177,3.179,18.682c3.092,8.279,8.409,14.766,14.738,19.014 c6.342,4.262,13.611,6.336,20.748,6.343c4.262,0,8.496-0.737,12.484-2.232c5.996-2.224,11.486-6.213,15.417-11.841 c3.944-5.62,6.17-12.787,6.155-20.704v-22.735C292.006,402.458,300.112,405.521,307.61,408.873z M229.039,413.237v-68.79 l36.106,11.112v66.94c0,3.077-0.549,5.534-1.387,7.528c-1.257,2.984-3.164,5.064-5.635,6.588c-2.456,1.51-5.505,2.356-8.727,2.356 c-2.398,0-4.854-0.47-7.166-1.424c-3.482-1.444-6.632-3.901-9.045-7.722C230.787,426.002,229.039,420.685,229.039,413.237z M451.46,372.34c0,3.786-1.806,7.354-4.855,9.601c-2.08,1.531-4.566,2.333-7.094,2.333c-1.17,0-2.354-0.173-3.511-0.527 l-350.407-107.8c-7.455-2.298-13.697-6.87-18.104-12.845c-4.422-5.974-6.95-13.286-6.95-21.095V35.233 c0-3.785,1.792-7.354,4.84-9.601c2.081-1.538,4.566-2.334,7.094-2.334c1.184,0,2.355,0.174,3.496,0.52l350.407,107.816 c7.47,2.297,13.712,6.877,18.133,12.845c4.407,5.982,6.935,13.293,6.95,21.109V372.34z"/> <path class="st0" d="M398.868,165.877l-292.179-89.9c-2.86-0.881-5.968-0.354-8.38,1.431c-2.398,1.777-3.829,4.595-3.829,7.586 v139.205c0,6.213,4.06,11.696,9.999,13.524L396.642,327.6c2.875,0.881,5.982,0.347,8.38-1.431c2.413-1.777,3.829-4.595,3.829-7.586 V179.401C408.851,173.188,404.806,167.698,398.868,165.877z"/> </g> </g>
</svg>