<!DOCTYPE svg PUBLIC "-//W3C//DTD SVG 1.1//EN" "http://www.w3.org/Graphics/SVG/1.1/DTD/svg11.dtd">
<!-- Uploaded to: SVG Repo, www.svgrepo.com, Transformed by: SVG Repo Mixer Tools -->
<svg height="800px" width="800px" version="1.1" id="_x32_" xmlns="http://www.w3.org/2000/svg" xmlns:xlink="http://www.w3.org/1999/xlink" viewBox="0 0 512 512" xml:space="preserve" fill="#000000">
<g id="SVGRepo_bgCarrier" stroke-width="0"/>
<g id="SVGRepo_tracerCarrier" stroke-linecap="round" stroke-linejoin="round"/>
<g id="SVGRepo_iconCarrier"> <style type="text/css"> .st0{fill:#ffffff;} </style> <g> <path class="st0" d="M494.808,192.041l-9.598-0.161c0,0-8.412-25.989-56.914-27.898c-38.4-1.518-77.883,1.098-112.568,6.744 c-27.018,4.386-38.022,22.044-43.646,21.946L256,192.412l-16.083,0.258c-5.625,0.098-16.629-17.559-43.646-21.946 c-34.685-5.646-74.168-8.262-112.568-6.744c-48.501,1.91-56.914,27.898-56.914,27.898l-9.598,0.161 c-9.651,0.154-17.35,8.108-17.188,17.762l0.301,18.769c0.119,7.227,4.676,13.649,11.466,16.125l6.257,2.287 c0,0,10.462,33.419,26.745,61.458c23.159,39.869,65.2,42.954,109.189,38.428c61.286-6.31,74.008-64.459,79.094-81.703 c9.913-33.628,22.946-29.83,22.946-29.83s13.033-3.798,22.946,29.83c5.086,17.244,17.808,75.393,79.094,81.703 c43.989,4.526,86.029,1.441,109.188-38.428c16.283-28.038,26.744-61.458,26.744-61.458l6.258-2.287 c6.789-2.476,11.347-8.898,11.466-16.125l0.301-18.769C512.158,200.149,504.459,192.195,494.808,192.041z M200.335,263.404 c-2.938,7.884-6.446,15.559-10.284,23.121c-8.09,15.936-19.955,27.528-39.368,29.438c-8.038,0.791-15.051,1.224-21.438,1.33 c-37.189,0.602-49.19-10.536-56.624-22.659c-11.557-18.875-16.863-35.476-18.867-48.851c-5.684-37.938,30.557-44.284,59.173-42.961 c23.918,1.106,51.744,0.79,75.036,6.458c10.916,2.658,17.699,10.458,18.755,18.748 C208.254,240.059,205.718,248.985,200.335,263.404z M458.246,245.782c-2.004,13.375-7.311,29.976-18.867,48.851 c-7.433,12.124-19.434,23.261-56.624,22.659c-6.387-0.106-13.401-0.539-21.438-1.33c-19.413-1.91-31.278-13.502-39.368-29.438 c-3.838-7.562-7.346-15.237-10.284-23.121c-5.383-14.418-7.919-23.345-6.384-35.378c1.057-8.29,7.839-16.09,18.756-18.748 c23.292-5.667,51.117-5.352,75.036-6.458C427.688,201.499,463.93,207.844,458.246,245.782z"/> </g> </g>
</svg>