<!DOCTYPE svg PUBLIC "-//W3C//DTD SVG 1.1//EN" "http://www.w3.org/Graphics/SVG/1.1/DTD/svg11.dtd">
<!-- Uploaded to: SVG Repo, www.svgrepo.com, Transformed by: SVG Repo Mixer Tools -->
<svg fill="#ffffff" version="1.1" id="Layer_1" xmlns="http://www.w3.org/2000/svg" xmlns:xlink="http://www.w3.org/1999/xlink" viewBox="0 0 496 496" xml:space="preserve" width="800px" height="800px">
<g id="SVGRepo_bgCarrier" stroke-width="0"/>
<g id="SVGRepo_tracerCarrier" stroke-linecap="round" stroke-linejoin="round"/>
<g id="SVGRepo_iconCarrier"> <g> <g> <g> <path d="M456,112H270.528c-3.312-9.288-12.112-16-22.528-16s-19.216,6.712-22.528,16H40c-22.056,0-40,17.944-40,40v256 c0,22.056,17.944,40,40,40h112v32h-16v16h224v-16h-16v-32h112c22.056,0,40-17.944,40-40V152C496,129.944,478.056,112,456,112z M248,112c4.416,0,8,3.584,8,8s-3.584,8-8,8c-4.416,0-8-3.584-8-8S243.584,112,248,112z M328,480H168v-32h160V480z M480,408 c0,13.232-10.768,24-24,24H40c-13.232,0-24-10.768-24-24v-8h464V408z M480,384H16V152c0-13.232,10.768-24,24-24h185.472 c3.312,9.288,12.112,16,22.528,16s19.216-6.712,22.528-16H456c13.232,0,24,10.768,24,24V384z"/> <path d="M32,368h432V144H248H32V368z M48,160h400v192H48V160z"/> <rect x="64" y="176" width="16" height="16"/> <rect x="96" y="176" width="16" height="16"/> <rect x="128" y="176" width="16" height="16"/> <path d="M278.056,242.112C284.168,235.08,288,226.024,288,216c0-22.056-17.944-40-40-40c-22.056,0-40,17.944-40,40 c0,10.024,3.832,19.08,9.944,26.112C198.312,248.136,184,266.424,184,288v48h128v-48 C312,266.424,297.688,248.136,278.056,242.112z M248,192c13.232,0,24,10.768,24,24s-10.768,24-24,24s-24-10.768-24-24 S234.768,192,248,192z M296,320h-16v-40h-16v40h-32v-40h-16v40h-16v-32c0-17.648,14.352-32,32-32h32c17.648,0,32,14.352,32,32 V320z"/> <path d="M248,16c33.408,0,65.016,16.304,84.552,43.608l13.016-9.312C323.024,18.808,286.552,0,248,0 s-75.024,18.808-97.568,50.296l13.016,9.312C182.984,32.304,214.592,16,248,16z"/> <path d="M306.536,78.192l13.016-9.312C303.016,45.792,276.264,32,248,32c-28.264,0-55.016,13.792-71.552,36.88l13.016,9.312 C202.992,59.288,224.88,48,248,48S293.008,59.288,306.536,78.192z"/> <path d="M202.472,87.472l13.016,9.312C222.992,86.272,235.152,80,248,80s25.008,6.272,32.512,16.784l13.016-9.312 C283.024,72.776,266,64,248,64S212.976,72.776,202.472,87.472z"/> <rect x="64" y="208" width="16" height="16"/> <rect x="96" y="208" width="16" height="16"/> <rect x="64" y="240" width="16" height="16"/> <rect x="416" y="312" width="16" height="16"/> <rect x="384" y="312" width="16" height="16"/> <rect x="352" y="312" width="16" height="16"/> <rect x="416" y="280" width="16" height="16"/> <rect x="384" y="280" width="16" height="16"/> <rect x="416" y="248" width="16" height="16"/> </g> </g> </g> </g>
</svg>